<?xml version="1.0" encoding="UTF-8" standalone="no"?>
<svg
   xmlns:dc="http://purl.org/dc/elements/1.1/"
   xmlns:cc="http://creativecommons.org/ns#"
   xmlns:rdf="http://www.w3.org/1999/02/22-rdf-syntax-ns#"
   xmlns:svg="http://www.w3.org/2000/svg"
   xmlns="http://www.w3.org/2000/svg"
   id="svg1236"
   version="1.1"
   viewBox="0 0 68.791 33.820095"
   height="33.820095mm"
   width="68.791mm">
  <defs
     id="defs1230" />
  <metadata
     id="metadata1233">
    <rdf:RDF>
      <cc:Work
         rdf:about="">
        <dc:format>image/svg+xml</dc:format>
        <dc:type
           rdf:resource="http://purl.org/dc/dcmitype/StillImage" />
        <dc:title></dc:title>
      </cc:Work>
    </rdf:RDF>
  </metadata>
  <g
     transform="translate(354.91926,132.66006)"
     id="layer1">
    <path
       id="path860"
       style="fill:#32ae4f;fill-opacity:1;fill-rule:nonzero;stroke:none;stroke-width:0.03527778"
       d="m -315.93308,-127.40824 c 0.17215,-0.0804 0.40146,-0.18697 0.66745,-0.31115 -1.04845,-3.15807 -5.19222,-5.28532 -9.93983,-4.89444 -1.09428,0.0903 -2.13431,0.30974 -3.0952,0.63006 1.37294,0.72672 7.25029,3.83469 8.6874,4.57129 1.63054,0.83609 2.41088,0.5962 3.68018,0.004" />
    <path
       id="path862"
       style="fill:#32ae4f;fill-opacity:1;fill-rule:nonzero;stroke:none;stroke-width:0.03527778"
       d="m -324.19246,-120.95135 c -2.13497,-1.01635 -6.80159,-3.48333 -10.01818,-5.20065 -0.0606,0.38735 -0.0797,0.78175 -0.0466,1.18004 0.31185,3.78354 4.86971,6.4957 10.18039,6.05825 2.01443,-0.1658 3.84612,-0.762 5.32931,-1.64288 -1.48319,0.50906 -3.288,0.63182 -5.44492,-0.39476" />
    <path
       id="path864"
       style="fill:#2555a9;fill-opacity:1;fill-rule:nonzero;stroke:none;stroke-width:0.03527778"
       d="m -322.84337,-121.68336 c -2.49975,-1.14406 -15.39666,-7.67116 -15.39666,-7.67116 l 6.56953,-2.97144 c 0,0 10.99534,5.48428 12.18494,6.07095 1.18887,0.58667 1.75966,0.41522 2.68747,-0.005 0.9278,-0.4191 4.09998,-1.85244 4.09998,-1.85244 l 4.14725,2.06622 c 0,0 -8.39963,3.77543 -9.60261,4.3427 -1.20156,0.56585 -2.75251,0.90805 -4.6899,0.0205" />
    <path
       id="path866"
       style="fill:#2555a9;fill-opacity:1;fill-rule:nonzero;stroke:none;stroke-width:0.03527778"
       d="m -354.91926,-115.03491 v 7.56002 h 5.61552 v -2.4264 h -2.56261 v -5.13362 h -3.05291" />
    <path
       id="path868"
       style="fill:#2555a9;fill-opacity:1;fill-rule:nonzero;stroke:none;stroke-width:0.03527778"
       d="m -345.30427,-108.41716 h 2.3071 l 0.27795,0.94227 h 3.23152 l -2.99724,-7.56073 h -3.37675 l -2.91829,7.56073 h 3.23081 z m 0.54596,-1.79493 0.55742,-2.30575 h 0.11148 c 0.0558,0.32032 0.11148,0.65087 0.20038,0.97225 l 0.35705,1.3335 h -1.22633" />
    <path
       id="path870"
       style="fill:#2555a9;fill-opacity:1;fill-rule:nonzero;stroke:none;stroke-width:0.03527778"
       d="m -336.04509,-110.53312 h 0.30054 c 0.49113,0 1.2707,-0.01 1.2707,0.6216 0,0.62159 -0.72457,0.63147 -1.22618,0.63147 h -0.34506 z m -2.82994,3.05859 h 4.15642 c 1.47038,0 3.07481,-0.53129 3.07481,-2.08563 0,-0.9024 -0.57933,-1.50424 -1.49295,-1.79493 v -0.0607 c 0.73448,-0.21025 1.10338,-0.86219 1.10338,-1.524 0,-1.74484 -1.66081,-2.0955 -3.28715,-2.0955 h -3.55451 z m 2.82994,-4.65314 v -1.08232 h 0.21167 c 0.44591,0 1.01462,-0.0409 1.01462,0.5214 0,0.52141 -0.50172,0.56092 -0.94752,0.56092 h -0.27877" />
    <path
       id="path872"
       style="fill:#2555a9;fill-opacity:1;fill-rule:nonzero;stroke:none;stroke-width:0.03527778"
       d="m -330.62995,-115.03597 h 3.0529 v 7.56073 h -3.0529 v -7.56073" />
    <path
       id="path874"
       style="fill:#2555a9;fill-opacity:1;fill-rule:nonzero;stroke:none;stroke-width:0.03527778"
       d="m -322.03967,-115.15556 c -2.55132,0 -4.64622,1.54375 -4.64622,3.92006 0,2.42711 2.08361,3.88056 4.64622,3.88056 2.56258,0 4.64609,-1.45345 4.64609,-3.88056 0,-2.37631 -2.0948,-3.92006 -4.64609,-3.92006 m 0,2.48637 c 0.9693,0 1.57124,0.6724 1.57124,1.47461 0,0.86219 -0.64633,1.45345 -1.57124,1.45345 -0.92509,0 -1.57138,-0.59126 -1.57138,-1.45345 0,-0.80221 0.60191,-1.47461 1.57138,-1.47461" />
    <path
       id="path876"
       style="fill:#2555a9;fill-opacity:1;fill-rule:nonzero;stroke:none;stroke-width:0.03527778"
       d="m -317.11524,-115.03527 h 6.41773 v 2.45675 l -1.68275,-0.0706 v 5.17454 h -3.05223 v -5.17454 l -1.68275,0.0706 v -2.45675" />
    <path
       id="path878"
       style="fill:#2555a9;fill-opacity:1;fill-rule:nonzero;stroke:none;stroke-width:0.03527778"
       d="m -309.93974,-115.03527 h 5.64867 v 2.06516 h -2.57386 v 0.72249 h 2.35091 v 1.96568 h -2.35091 v 0.74154 h 2.66347 v 2.06587 h -5.73828 v -7.56074" />
    <path
       id="path880"
       style="fill:#2555a9;fill-opacity:1;fill-rule:nonzero;stroke:none;stroke-width:0.03527778"
       d="m -302.4418,-110.1821 0.15663,0.11006 c 0.54539,0.38171 1.20297,0.69215 1.90429,0.69215 0.30127,0 0.78105,-0.11006 0.78105,-0.45155 0,-0.34079 -0.40146,-0.37042 -0.68086,-0.42122 l -0.61242,-0.10019 c -1.19168,-0.18979 -2.19428,-0.82197 -2.19428,-2.00519 0,-1.79493 1.8154,-2.79823 3.64278,-2.79823 0.95885,0 1.83868,0.21096 2.66277,0.66252 l -0.82409,1.93534 c -0.52423,-0.32103 -1.11407,-0.5715 -1.77235,-0.5715 -0.2667,0 -0.65688,0.0896 -0.65688,0.40075 0,0.28081 0.37889,0.32103 0.61313,0.37112 l 0.69004,0.14041 c 1.29328,0.26105 2.22885,0.88265 2.22885,2.16535 0,1.80552 -1.82739,2.69804 -3.64349,2.69804 -1.05834,0 -2.28459,-0.26105 -3.23145,-0.69215 l 0.93628,-2.13571" />
    <path
       id="path882"
       style="fill:#2555a9;fill-opacity:1;fill-rule:nonzero;stroke:none;stroke-width:0.03527778"
       d="m -296.13555,-115.03527 h 6.41773 v 2.45675 l -1.68204,-0.0706 v 5.17454 h -3.05294 v -5.17454 l -1.68275,0.0706 v -2.45675" />
    <path
       id="path884"
       style="fill:#2555a9;fill-opacity:1;fill-rule:nonzero;stroke:none;stroke-width:0.03527778"
       d="m -287.53306,-114.12757 h 0.13123 c 0.1517,0 0.27587,-0.0515 0.27587,-0.17568 0,-0.10936 -0.079,-0.18133 -0.2547,-0.18133 -0.0727,0 -0.12347,0.007 -0.1524,0.0141 z m -0.007,0.67028 h -0.27799 v -1.18745 c 0.10936,-0.0219 0.26317,-0.0438 0.46002,-0.0438 0.22507,0 0.32738,0.036 0.41416,0.0945 0.0656,0.0508 0.11712,0.14605 0.11712,0.2547 0,0.139 -0.1016,0.2406 -0.24765,0.28434 v 0.0141 c 0.11642,0.0374 0.18204,0.13194 0.21872,0.2914 0.036,0.18203 0.0579,0.25541 0.0875,0.2921 h -0.29845 c -0.0367,-0.0444 -0.0593,-0.14605 -0.0953,-0.28434 -0.0219,-0.13124 -0.0945,-0.1898 -0.24765,-0.1898 h -0.13052 z m 0.18203,-1.5741 c -0.52423,0 -0.91793,0.43039 -0.91793,0.95533 0,0.53128 0.3937,0.9532 0.93204,0.9532 0.52423,0.008 0.91087,-0.42192 0.91087,-0.9532 0,-0.52494 -0.38664,-0.95533 -0.91863,-0.95533 z m 0.0141,-0.23989 c 0.68509,0 1.21567,0.53199 1.21567,1.19522 0,0.67662 -0.53058,1.20085 -1.22343,1.20085 -0.68439,0 -1.22979,-0.52423 -1.22979,-1.20085 0,-0.66323 0.5454,-1.19522 1.22979,-1.19522 h 0.008" />
    <path
       id="path886"
       style="fill:#2a5db2;fill-opacity:1;fill-rule:nonzero;stroke:none;stroke-width:0.03527778"
       d="m -342.69124,-101.81457 c 0,-0.26388 -0.057,-0.48013 -0.17142,-0.65017 -0.11356,-0.16827 -0.26818,-0.25329 -0.46425,-0.25329 -0.25125,0 -0.45435,0.12735 -0.61105,0.38065 -0.15653,0.25329 -0.23424,0.53093 -0.23424,0.83573 0,0.26352 0.0572,0.48013 0.17222,0.6484 0.11494,0.17004 0.27164,0.25506 0.46909,0.25506 0.25756,0 0.4615,-0.12594 0.61323,-0.37536 0.15022,-0.25011 0.22642,-0.53057 0.22642,-0.84102 m 0.80726,-0.0706 c 0,0.51894 -0.16591,0.96062 -0.49678,1.32645 -0.33017,0.36477 -0.75558,0.5468 -1.27498,0.5468 -0.36117,0 -0.67165,-0.13194 -0.93197,-0.39722 -0.25893,-0.26459 -0.38872,-0.6156 -0.38872,-1.05128 0,-0.51753 0.16647,-0.95462 0.49801,-1.31163 0.33169,-0.35807 0.75848,-0.53693 1.27992,-0.53693 0.36339,0 0.67387,0.12841 0.92921,0.38488 0.25686,0.25718 0.38531,0.6029 0.38531,1.03893" />
    <path
       id="path888"
       style="fill:#2a5db2;fill-opacity:1;fill-rule:nonzero;stroke:none;stroke-width:0.03527778"
       d="m -338.5013,-102.31904 c 0,0.18697 -0.029,0.53834 -0.086,1.05269 -0.0572,0.51505 -0.0861,0.89182 -0.0861,1.1303 l -0.82338,0.0318 c 0,-0.10231 0.0353,-0.40499 0.10512,-0.91087 0.0699,-0.50518 0.10584,-0.8629 0.10584,-1.07104 0,-0.22154 -0.0325,-0.37465 -0.0959,-0.45931 -0.0642,-0.0847 -0.17075,-0.12771 -0.31973,-0.12771 -0.18478,0 -0.36406,0.1263 -0.53893,0.37959 -0.17435,0.25329 -0.28018,0.56162 -0.31613,0.92569 -0.0473,0.4579 -0.0818,0.86854 -0.10516,1.2319 l -0.80144,0.0318 c 0.1488,-1.10208 0.22362,-1.84644 0.22362,-2.23379 0,-0.22366 -0.0176,-0.49601 -0.0515,-0.81703 l 0.79234,-0.0804 c 0.0141,0.18132 0.0211,0.39158 0.0211,0.63288 h 0.0452 c 0.24903,-0.4445 0.61736,-0.66746 1.10423,-0.66746 0.55093,0 0.82684,0.3168 0.82684,0.95109" />
    <path
       id="path890"
       style="fill:#2a5db2;fill-opacity:1;fill-rule:nonzero;stroke:none;stroke-width:0.03527778"
       d="m -334.54716,-102.66088 c -0.44457,0.005 -0.77198,0.13406 -0.98008,0.39017 -0.20892,0.25471 -0.31186,0.59972 -0.31186,1.03364 0,0.3937 0.12347,0.59055 0.36975,0.59055 0.19127,0 0.36766,-0.1397 0.52846,-0.41839 0.16012,-0.27799 0.26169,-0.54469 0.30416,-0.7994 0.0423,-0.2547 0.0719,-0.51929 0.0896,-0.79657 m 0.81704,-0.65052 c -0.17075,1.15288 -0.25467,1.95015 -0.25467,2.39042 0,0.22366 0.0168,0.47413 0.0536,0.75353 l -0.78469,0.0896 c -0.0134,-0.1778 -0.019,-0.38241 -0.019,-0.61736 h -0.0479 c -0.23717,0.43251 -0.58773,0.64841 -1.05406,0.64841 -0.26748,0 -0.4699,-0.10019 -0.60622,-0.30128 -0.13613,-0.20108 -0.2038,-0.47625 -0.2038,-0.8255 0,-0.50165 0.17488,-0.95391 0.52628,-1.35748 0.35069,-0.40288 0.8975,-0.61454 1.63696,-0.63359 l 0.14097,-0.0988 0.61256,-0.048" />
    <path
       id="path892"
       style="fill:#2a5db2;fill-opacity:1;fill-rule:nonzero;stroke:none;stroke-width:0.03527778"
       d="m -331.9365,-104.19194 c 0,0.16581 -0.0579,0.30763 -0.17222,0.42545 -0.11494,0.11854 -0.25675,0.1771 -0.42471,0.1771 -0.12982,0 -0.23001,-0.0395 -0.29986,-0.11924 -0.0699,-0.0804 -0.10584,-0.17921 -0.10584,-0.29845 0,-0.16863 0.0579,-0.30974 0.17223,-0.42474 0.11494,-0.1143 0.25675,-0.17216 0.42471,-0.17216 0.27093,0 0.40569,0.13688 0.40569,0.41204 m -0.24553,0.96027 c 0.002,0.0571 -0.0226,0.27587 -0.074,0.65546 -0.0502,0.38029 -0.0897,0.68791 -0.11437,0.92357 -0.0473,0.44309 -0.0868,0.94827 -0.11783,1.51694 l -0.81414,0.031 c 0.0423,-0.27657 0.10926,-0.79163 0.20105,-1.54798 0.0423,-0.40358 0.0641,-0.78105 0.0641,-1.13242 0,-0.14182 -0.004,-0.26035 -0.0134,-0.35419 l 0.86861,-0.0924" />
    <path
       id="path894"
       style="fill:#2a5db2;fill-opacity:1;fill-rule:nonzero;stroke:none;stroke-width:0.03527778"
       d="m -329.44416,-103.2031 -0.25258,0.75 c -0.14249,-0.0423 -0.29133,-0.0635 -0.44595,-0.0635 -0.38583,0 -0.60039,0.21167 -0.64477,0.6343 -0.0678,0.64347 -0.12005,1.22484 -0.15671,1.74625 l -0.80077,0.0318 c 0.14884,-1.10208 0.22296,-1.84644 0.22296,-2.23379 0,-0.22366 -0.0162,-0.49601 -0.0508,-0.81703 l 0.79167,-0.0804 c 0.0127,0.14111 0.019,0.28151 0.019,0.42121 h 0.0479 c 0.21731,-0.30621 0.48051,-0.45931 0.79166,-0.45931 0.14676,0 0.30622,0.024 0.47834,0.0706" />
    <path
       id="path896"
       style="fill:#2a5db2;fill-opacity:1;fill-rule:nonzero;stroke:none;stroke-width:0.03527778"
       d="m -325.60798,-101.00741 c 0,0.63853 -0.47279,0.95744 -1.41746,0.95744 -0.34435,0 -0.64559,-0.0367 -0.90315,-0.11148 l 0.10873,-0.62936 c 0.26596,0.096 0.53054,0.14464 0.79442,0.14464 0.25605,0 0.43314,-0.0219 0.53195,-0.0642 0.0988,-0.043 0.14813,-0.1143 0.14813,-0.21449 0,-0.15451 -0.17914,-0.30268 -0.53551,-0.44379 -0.31323,-0.12277 -0.54116,-0.24412 -0.68295,-0.36336 -0.19677,-0.16581 -0.29421,-0.36901 -0.29421,-0.6096 0,-0.28222 0.10513,-0.51012 0.31612,-0.68298 0.21029,-0.17215 0.51647,-0.25823 0.91927,-0.25823 0.3761,0 0.67166,0.0332 0.88692,0.0995 l -0.10792,0.63147 c -0.24126,-0.0938 -0.50034,-0.14111 -0.779,-0.14111 -0.34078,0 -0.51082,0.0882 -0.51082,0.26176 0,0.0896 0.036,0.16157 0.10802,0.2159 0.0733,0.0543 0.2201,0.12277 0.44376,0.20532 0.30907,0.11359 0.53343,0.2293 0.67384,0.34854 0.19953,0.17004 0.29986,0.38806 0.29986,0.65405" />
    <path
       id="path898"
       style="fill:#2a5db2;fill-opacity:1;fill-rule:nonzero;stroke:none;stroke-width:0.03527778"
       d="m -323.98411,-104.13161 c 0,0.14429 -0.0487,0.27164 -0.14813,0.38029 -0.0988,0.10795 -0.23632,0.16157 -0.41271,0.16157 -0.14951,0 -0.26596,-0.0462 -0.34989,-0.14005 -0.0841,-0.0931 -0.12636,-0.20602 -0.12636,-0.33831 0,-0.14464 0.0493,-0.26952 0.14883,-0.37606 0.0988,-0.10654 0.23785,-0.16052 0.41628,-0.16052 0.15106,0 0.26748,0.0466 0.34936,0.13935 0.0826,0.0931 0.12262,0.20391 0.12262,0.33373 m -0.14675,3.99521 h -0.85782 c 0.0296,-0.43992 0.0444,-0.9451 0.0444,-1.51518 0,-0.56692 -0.036,-1.06187 -0.10862,-1.48732 l 0.9193,-0.0931 c -0.0276,0.41346 -0.0416,0.9398 -0.0416,1.58045 0,0.5461 0.0147,1.05198 0.0444,1.51518" />
    <path
       id="path900"
       style="fill:#2a5db2;fill-opacity:1;fill-rule:nonzero;stroke:none;stroke-width:0.03527778"
       d="m -320.52424,-100.13605 h -0.84956 c 0.0472,-0.53834 0.0706,-1.08303 0.0706,-1.63407 0,-0.33373 -0.0487,-0.56021 -0.14817,-0.67945 -0.0995,-0.11924 -0.24898,-0.17921 -0.45226,-0.17921 -0.24197,0 -0.47127,0.0833 -0.68862,0.24977 0.01,0.82903 0.0163,1.57762 0.0163,2.24296 h -0.85863 c 0.038,-0.66534 0.0572,-1.18957 0.0572,-1.57057 0,-0.508 -0.0522,-0.98778 -0.1567,-1.43933 l 0.81704,-0.0896 0.055,0.33867 h 0.0508 c 0.29132,-0.25048 0.62579,-0.37677 1.00541,-0.37677 0.32745,0 0.58981,0.0776 0.78606,0.23213 0.19745,0.15381 0.29559,0.43885 0.29559,0.85372 0,0.0621 -0.002,0.14393 -0.009,0.24694 -0.005,0.10372 -0.007,0.20885 -0.007,0.3175 0,0.28717 0.005,0.78317 0.0156,1.48732" />
    <path
       id="path902"
       style="fill:#2a5db2;fill-opacity:1;fill-rule:nonzero;stroke:none;stroke-width:0.03527778"
       d="m -317.39993,-100.80633 -0.0543,0.6096 c -0.19403,0.10231 -0.4565,0.15311 -0.78811,0.15311 -0.54892,0 -0.97155,-0.15311 -1.26506,-0.46003 -0.29556,-0.30621 -0.44246,-0.6738 -0.44246,-1.10419 0,-0.44591 0.15463,-0.83608 0.46292,-1.16911 0.30833,-0.33302 0.73025,-0.49953 1.26647,-0.49953 0.26176,0 0.4953,0.0296 0.69991,0.0896 l -0.10936,0.65052 c -0.19544,-0.0804 -0.41486,-0.12065 -0.65758,-0.12065 -0.25752,0 -0.46002,0.091 -0.60889,0.27305 -0.14887,0.18133 -0.22366,0.4057 -0.22366,0.67099 0,0.28998 0.0882,0.5341 0.26458,0.73448 0.1771,0.20038 0.42686,0.29986 0.75001,0.29986 0.18979,0 0.42474,-0.0423 0.70555,-0.12771" />
    <path
       id="path904"
       style="fill:#2a5db2;fill-opacity:1;fill-rule:nonzero;stroke:none;stroke-width:0.03527778"
       d="m -314.87828,-102.00648 c 0,-0.48895 -0.20884,-0.73378 -0.62583,-0.73378 -0.39793,0 -0.63429,0.2533 -0.70837,0.75918 z m 0.74648,0.0289 c 0,0.10865 -0.006,0.24977 -0.019,0.42474 l -2.05528,0.0346 c 0.0296,0.2413 0.13264,0.44027 0.30974,0.60043 0.17638,0.15946 0.40781,0.23918 0.69497,0.23918 0.31961,0 0.65899,-0.048 1.01811,-0.14322 l -0.0635,0.61877 c -0.2928,0.10654 -0.65687,0.15945 -1.09078,0.15945 -0.54893,0 -0.97014,-0.15451 -1.26224,-0.46284 -0.29351,-0.30833 -0.43886,-0.67945 -0.43886,-1.11337 0,-0.45367 0.13829,-0.84596 0.41628,-1.17969 0.27728,-0.33302 0.66322,-0.49882 1.1564,-0.49882 0.45085,0 0.78599,0.12206 1.00613,0.36618 0.21801,0.24553 0.32808,0.56303 0.32808,0.95462" />
    <path
       id="path906"
       style="fill:#2a5db2;fill-opacity:1;fill-rule:nonzero;stroke:none;stroke-width:0.03527778"
       d="m -310.81922,-100.13605 h -0.8516 c 0.0233,-0.54892 0.0346,-0.99201 0.0346,-1.32786 0,-0.3429 -0.007,-0.70837 -0.0219,-1.09784 l -0.51082,0.22366 -0.16581,-0.30621 1.11972,-0.86148 h 0.39581 c -0.0233,0.8763 -0.0346,1.55716 -0.0346,2.04187 0,0.32526 0.0113,0.76835 0.0346,1.32786" />
    <path
       id="path908"
       style="fill:#2a5db2;fill-opacity:1;fill-rule:nonzero;stroke:none;stroke-width:0.03527778"
       d="m -307.93067,-101.61983 c 0,-0.45791 -0.0762,-0.80434 -0.22719,-1.0407 -0.12559,-0.19755 -0.28928,-0.29704 -0.49177,-0.29704 -0.19333,0 -0.34714,0.0797 -0.46214,0.23919 -0.10725,0.14746 -0.16016,0.32526 -0.16016,0.53622 0,0.23071 0.0621,0.42545 0.18556,0.58702 0.14111,0.18133 0.32879,0.27164 0.56444,0.27164 0.24906,0 0.44662,-0.0988 0.59126,-0.29633 m 0.78458,-0.0995 c 0,0.88758 -0.20179,1.57903 -0.60678,2.074329 -0.41205,0.503061 -1.00754,0.769761 -1.78365,0.805038 l -0.0896,-0.527754 c 0.54046,-0.03105 0.95533,-0.227896 1.24531,-0.589846 0.24412,-0.306207 0.38523,-0.703437 0.42474,-1.193797 h -0.0325 c -0.19403,0.22578 -0.46708,0.33866 -0.82056,0.33866 -0.38241,0 -0.6865,-0.13193 -0.90875,-0.39581 -0.2032,-0.2406 -0.3041,-0.53622 -0.3041,-0.88759 0,-0.38453 0.11853,-0.71261 0.3549,-0.98213 0.26528,-0.30198 0.623,-0.45368 1.07244,-0.45368 0.39582,0 0.72602,0.14253 0.99272,0.42757 0.30339,0.32526 0.45579,0.7874 0.45579,1.38501" />
    <path
       id="path910"
       style="fill:#2a5db2;fill-opacity:1;fill-rule:nonzero;stroke:none;stroke-width:0.03527778"
       d="m -304.53801,-103.45816 c 0,-0.16792 -0.0522,-0.30198 -0.15452,-0.40075 -0.10371,-0.0995 -0.23706,-0.14888 -0.40075,-0.14888 -0.16016,0 -0.29069,0.0423 -0.39159,0.1263 -0.10089,0.084 -0.15169,0.19544 -0.15169,0.33373 0,0.3175 0.22154,0.58067 0.66393,0.79163 0.28928,-0.14746 0.43462,-0.381 0.43462,-0.70203 m 0.0981,2.19216 c 0,-0.41275 -0.26741,-0.73871 -0.80081,-0.97719 -0.16792,0.0621 -0.3048,0.17639 -0.41134,0.3436 -0.10653,0.16722 -0.16016,0.34643 -0.16016,0.53834 0,0.22225 0.0663,0.40146 0.19826,0.5334 0.13194,0.13335 0.30128,0.19968 0.5073,0.19968 0.19403,0 0.35348,-0.0586 0.47907,-0.1771 0.12488,-0.11712 0.18768,-0.27164 0.18768,-0.46073 m 0.79869,-0.0607 c 0,0.36971 -0.1397,0.67381 -0.4184,0.91158 -0.27869,0.23636 -0.635,0.3556 -1.06962,0.3556 -0.42686,0 -0.7747,-0.11148 -1.0414,-0.33373 -0.2674,-0.22225 -0.40075,-0.50941 -0.40075,-0.86289 0,-0.25612 0.0713,-0.48613 0.21378,-0.69286 0.1531,-0.22366 0.37253,-0.39229 0.65758,-0.50729 v -0.0515 c -0.42122,-0.24413 -0.63148,-0.5715 -0.63148,-0.97932 0,-0.29774 0.12065,-0.54327 0.36266,-0.73448 0.2413,-0.18415 0.54328,-0.27728 0.90664,-0.27728 0.35489,0 0.64488,0.0868 0.86854,0.26035 0.22366,0.17356 0.33514,0.39652 0.33514,0.66886 0,0.19897 -0.055,0.38383 -0.16299,0.55175 -0.11924,0.18697 -0.28504,0.32455 -0.49741,0.41134 v 0.0515 c 0.5842,0.29986 0.87771,0.70908 0.87771,1.22837" />
    <path
       id="path912"
       style="fill:#2a5db2;fill-opacity:1;fill-rule:nonzero;stroke:none;stroke-width:0.03527778"
       d="m -301.03422,-103.45816 c 0,-0.16792 -0.0522,-0.30198 -0.15452,-0.40075 -0.10372,-0.0995 -0.23707,-0.14888 -0.40075,-0.14888 -0.16017,0 -0.29069,0.0423 -0.39088,0.1263 -0.1016,0.084 -0.1524,0.19544 -0.1524,0.33373 0,0.3175 0.22225,0.58067 0.66393,0.79163 0.28998,-0.14746 0.43462,-0.381 0.43462,-0.70203 m 0.0988,2.19216 c 0,-0.41275 -0.2667,-0.73871 -0.80152,-0.97719 -0.16792,0.0621 -0.30479,0.17639 -0.41133,0.3436 -0.10654,0.16722 -0.16016,0.34643 -0.16016,0.53834 0,0.22225 0.0663,0.40146 0.19826,0.5334 0.13264,0.13335 0.30127,0.19968 0.50729,0.19968 0.19403,0 0.35348,-0.0586 0.47907,-0.1771 0.12559,-0.11712 0.18839,-0.27164 0.18839,-0.46073 m 0.79798,-0.0607 c 0,0.36971 -0.1397,0.67381 -0.4184,0.91158 -0.27869,0.23636 -0.635,0.3556 -1.06962,0.3556 -0.42686,0 -0.7747,-0.11148 -1.04069,-0.33373 -0.26741,-0.22225 -0.40076,-0.50941 -0.40076,-0.86289 0,-0.25612 0.0706,-0.48613 0.21308,-0.69286 0.15311,-0.22366 0.37253,-0.39229 0.65758,-0.50729 v -0.0515 c -0.42122,-0.24413 -0.63147,-0.5715 -0.63147,-0.97932 0,-0.29774 0.12065,-0.54327 0.36336,-0.73448 0.24059,-0.18415 0.54257,-0.27728 0.90593,-0.27728 0.35631,0 0.64488,0.0868 0.86854,0.26035 0.22366,0.17356 0.33514,0.39652 0.33514,0.66886 0,0.19897 -0.0543,0.38383 -0.16299,0.55175 -0.11923,0.18697 -0.28433,0.32455 -0.49741,0.41134 v 0.0515 c 0.5849,0.29986 0.87771,0.70908 0.87771,1.22837" />
    <path
       id="path914"
       style="fill:#32ae4e;fill-opacity:1;fill-rule:nonzero;stroke:none;stroke-width:0.03527778"
       d="m -339.89753,-105.29366 h 34.67372 v -0.20461 h -34.67372 v 0.20461" />
  </g>
</svg>
