<?xml version="1.0" encoding="UTF-8" standalone="no"?>
<svg
   xmlns:dc="http://purl.org/dc/elements/1.1/"
   xmlns:cc="http://creativecommons.org/ns#"
   xmlns:rdf="http://www.w3.org/1999/02/22-rdf-syntax-ns#"
   xmlns:svg="http://www.w3.org/2000/svg"
   xmlns="http://www.w3.org/2000/svg"
   viewBox="0 0 730.71497 141.636"
   height="141.636"
   width="730.71497"
   xml:space="preserve"
   id="svg834"
   version="1.1"><metadata
     id="metadata840"><rdf:RDF><cc:Work
         rdf:about=""><dc:format>image/svg+xml</dc:format><dc:type
           rdf:resource="http://purl.org/dc/dcmitype/StillImage" /><dc:title></dc:title></cc:Work></rdf:RDF></metadata><defs
     id="defs838" /><g
     transform="matrix(1.3333333,0,0,-1.3333333,0,141.636)"
     id="g842"><g
       transform="scale(0.1)"
       id="g844"><path
         id="path846"
         style="fill:#2ea248;fill-opacity:1;fill-rule:nonzero;stroke:none"
         d="m 3289.91,518.945 c 0,193.508 160.66,350.371 358.86,350.371 34.45,0 67.74,-4.742 99.28,-13.582 V 634.477 c -26.85,22.007 -61.47,35.269 -99.27,35.269 -85.32,0 -154.47,-67.519 -154.47,-150.82 0,-83.301 69.15,-150.813 154.47,-150.813 37.8,0 72.42,13.262 99.27,35.262 V 182.176 c -31.54,-8.84 -64.83,-13.59 -99.28,-13.59 -198.2,0 -358.86,156.848 -358.86,350.359" /><path
         id="path848"
         style="fill:#8d5819;fill-opacity:1;fill-rule:nonzero;stroke:none"
         d="M 532.273,910.051 391.934,1059.62 v -251.6 z" /><path
         id="path850"
         style="fill:#8d5819;fill-opacity:1;fill-rule:nonzero;stroke:none"
         d="M 391.938,524.227 686.59,746.398 c -3.699,3.68 -6.051,5.622 -6.051,5.622 L 546.961,894.387 391.938,781.688 V 524.227" /><path
         id="path852"
         style="fill:#8d5819;fill-opacity:1;fill-rule:nonzero;stroke:none"
         d="M 362.34,1062.27 221.719,909.969 362.328,807.73 Z" /><path
         id="path854"
         style="fill:#8d5819;fill-opacity:1;fill-rule:nonzero;stroke:none"
         d="M 54.8398,729.094 C 32.3789,699.961 0,642.051 0,549.563 0,417.293 96.6875,205.371 362.34,189.152 l -0.012,308.09 -307.4882,231.852" /><path
         id="path856"
         style="fill:#8d5819;fill-opacity:1;fill-rule:nonzero;stroke:none"
         d="M 362.336,781.391 207.152,894.203 75.8828,752.012 c 0,0 -2.7383,-2.199 -7.1406,-6.711 L 362.336,523.922 v 257.469" /><path
         id="path858"
         style="fill:#8d5819;fill-opacity:1;fill-rule:nonzero;stroke:none"
         d="M 391.938,497.551 V 189.32 c 263.8,17.481 364.48,228.43 364.48,360.239 0,93.789 -33.301,152.031 -55.77,180.75 L 391.938,497.551" /><path
         id="path860"
         style="fill:#2ea248;fill-opacity:1;fill-rule:nonzero;stroke:none"
         d="M 4775.13,152.234 4915.46,2.67188 V 254.258 Z" /><path
         id="path862"
         style="fill:#2ea248;fill-opacity:1;fill-rule:nonzero;stroke:none"
         d="M 4915.46,538.059 4620.82,315.887 c 3.69,-3.68 6.05,-5.629 6.05,-5.629 l 133.56,-142.371 155.03,112.711 v 257.461" /><path
         id="path864"
         style="fill:#2ea248;fill-opacity:1;fill-rule:nonzero;stroke:none"
         d="m 4945.06,0 140.63,152.32 -140.62,102.219 z" /><path
         id="path866"
         style="fill:#2ea248;fill-opacity:1;fill-rule:nonzero;stroke:none"
         d="m 5252.56,333.191 c 22.46,29.133 54.84,87.032 54.84,179.532 0,132.261 -96.69,344.191 -362.34,360.402 l 0.01,-308.082 307.49,-231.852" /><path
         id="path868"
         style="fill:#2ea248;fill-opacity:1;fill-rule:nonzero;stroke:none"
         d="m 4945.07,280.879 155.17,-112.789 131.3,142.168 c 0,0 2.72,2.211 7.12,6.711 L 4945.07,538.348 V 280.879" /><path
         id="path870"
         style="fill:#2ea248;fill-opacity:1;fill-rule:nonzero;stroke:none"
         d="m 4915.46,564.734 v 308.231 c -263.79,-17.488 -364.47,-228.43 -364.47,-360.238 0,-93.789 33.3,-152.032 55.77,-180.743 l 308.7,232.75" /><path
         id="path872"
         style="fill:#2ea248;fill-opacity:1;fill-rule:nonzero;stroke:none"
         d="m 1386.79,576.742 v -382.57 h -32.15 c -68.59,-15.82 -169.71,-16.609 -169.71,-16.609 -198.203,0 -358.985,156.859 -358.985,350.371 0,193.5 166.903,352.441 365.095,352.441 0,0 168.22,1.297 195.75,-26.23 V 662.852 c 0,0 -95.47,17.48 -195.17,17.48 l -6.8,-1.609 c -85.31,0 -154.47,-67.52 -154.47,-150.809 0,-79.641 63.32,-144.859 143.45,-150.43 v 199.258 h 212.99" /><path
         id="path874"
         style="fill:#2ea248;fill-opacity:1;fill-rule:nonzero;stroke:none"
         d="M 2646.56,688.09 V 194.172 h -213 V 688.09 h -193.22 c -43.06,0 -52.9,-23.289 -52.9,-52.758 0,-113.289 70.37,-58.59 70.37,-242.109 0,-197.114 -247.93,-199.051 -247.93,-199.051 h -119.11 -258 c -127.23,0 -202.92,97.398 -202.92,185.461 0,99.347 99.84,150.308 99.84,150.308 0,0 -86.26,29.329 -86.26,156.211 0,177.7 218.81,177.7 218.81,177.7 h 228.53 l -0.05,-173.782 -150.48,-0.039 c 0,0 -74.11,5.821 -74.11,-45 0,-50.82 66.34,-52.761 66.34,-52.761 h 158.3 V 461.512 h -150.53 c 0,0 -62.47,7.769 -62.47,-46.93 0,-54.711 64.41,-50.473 64.41,-50.473 h 196.52 c 0,0 96.41,-15.898 96.41,62.454 0,78.367 -78.26,103.23 -78.26,238.238 0,191.289 215.2,199.051 215.2,199.051 h 38.82 29.47 554.45 V 688.09 h -148.23" /><path
         id="path876"
         style="fill:#2ea248;fill-opacity:1;fill-rule:nonzero;stroke:none"
         d="m 3263.47,194.172 h -258 c -127.22,0 -202.93,97.398 -202.93,185.457 0,99.351 99.85,150.312 99.85,150.312 0,0 -86.25,29.329 -86.25,156.207 0,177.704 218.81,177.704 218.81,177.704 h 228.52 l -0.05,-173.782 -150.47,-0.039 c 0,0 -74.12,5.821 -74.12,-45 0,-50.82 66.36,-52.761 66.36,-52.761 h 158.28 V 461.512 h -150.52 c 0,0 -62.47,7.769 -62.47,-46.93 0,-54.711 64.41,-50.473 64.41,-50.473 h 148.58 V 194.172" /><path
         id="path878"
         style="fill:#2ea248;fill-opacity:1;fill-rule:evenodd;stroke:none"
         d="m 3768.3,518.945 c 0,193.508 160.65,350.371 358.86,350.371 198.19,0 358.85,-156.863 358.85,-350.371 0,-193.511 -160.66,-350.359 -358.85,-350.359 -198.21,0 -358.86,156.848 -358.86,350.359 m 204.4,-0.019 c 0,83.301 69.15,150.82 154.47,150.82 85.31,0 154.47,-67.519 154.47,-150.82 0,-83.301 -69.16,-150.813 -154.47,-150.813 -85.32,0 -154.47,67.512 -154.47,150.813" /><g
         transform="scale(10)"
         id="g880"><text
           id="text884"
           style="font-variant:normal;font-weight:normal;font-size:20.60210037px;font-family:ArialMT;-inkscape-font-specification:ArialMT;writing-mode:lr-tb;fill:#171717;fill-opacity:1;fill-rule:nonzero;stroke:none"
           transform="matrix(1,1e-8,-1e-8,-1,530.281,73.3727)"><tspan
             id="tspan882"
             y="0"
             x="0">®</tspan></text>
</g></g></g></svg>