<?xml version="1.0" encoding="UTF-8" standalone="no"?>
<svg
   xmlns:dc="http://purl.org/dc/elements/1.1/"
   xmlns:cc="http://creativecommons.org/ns#"
   xmlns:rdf="http://www.w3.org/1999/02/22-rdf-syntax-ns#"
   xmlns:svg="http://www.w3.org/2000/svg"
   xmlns="http://www.w3.org/2000/svg"
   id="svg3753"
   version="1.1"
   viewBox="0 0 32 22"
   height="22mm"
   width="32mm">
  <defs
     id="defs3747" />
  <metadata
     id="metadata3750">
    <rdf:RDF>
      <cc:Work
         rdf:about="">
        <dc:format>image/svg+xml</dc:format>
        <dc:type
           rdf:resource="http://purl.org/dc/dcmitype/StillImage" />
        <dc:title></dc:title>
      </cc:Work>
    </rdf:RDF>
  </metadata>
  <g
     transform="translate(0,-275)"
     id="layer1">
    <g
       transform="translate(-145.77381,83.49405)"
       id="g3797">
      <path
         d="m 154.99915,203.38489 0.27782,-1.39435 c 0.0767,-0.39952 0.17462,-0.52917 0.60854,-0.52917 h 0.0344 l 0.0397,-0.20637 h -1.70127 l -0.0423,0.20637 h 0.0529 c 0.26459,0 0.42598,0.0476 0.42598,0.26458 a 1.2514792,1.2514792 0 0 1 -0.0423,0.24078 l -0.26458,1.25677 a 1.5425208,1.5425208 0 0 1 -0.40482,0.0529 c -0.762,0 -1.14829,-0.48419 -1.14829,-1.43934 0,-1.05833 0.44979,-2.11666 1.45786,-2.11666 0.75935,0 0.97102,0.46302 1.01335,0.84931 v 0.037 h 0.20108 l 0.17992,-1.00013 h -0.037 a 5.4160208,5.4160208 0 0 0 -1.34673,-0.20108 c -1.93675,0 -2.14577,1.75419 -2.14577,2.50825 0,1.12448 0.55298,1.7436 1.55575,1.7436 a 2.873375,2.873375 0 0 0 1.26206,-0.26458 z"
         id="path10"
         style="stroke-width:0.26458332" />
      <path
         d="m 157.37247,200.19931 c 0.0714,-0.35454 0.11112,-0.42333 0.43127,-0.42333 0.45243,0 0.72495,0.2196 0.72495,0.58472 0,0.70644 -0.62441,0.85461 -1.14829,0.85461 h -0.21166 z m 1.94997,5.82083 0.38365,-1.90764 c 0.0767,-0.40217 0.17727,-0.52917 0.60854,-0.52917 v 0 a 1.9155833,1.9155833 0 0 0 0.48684,0.0609 2.7966458,2.7966458 0 0 0 0.52916,-0.045 0.24077083,0.24077083 0 0 1 0.22754,0.26458 1.6880417,1.6880417 0 0 1 -0.0265,0.19579 l -0.43391,2.17488 c -0.10584,0.52917 -0.27782,1.01865 -1.10596,1.01865 a 0.6746875,0.6746875 0 0 1 -0.74083,-0.64294 2.5796875,2.5796875 0 0 1 0.0714,-0.56886 m 3.11414,-3.66447 0.43656,-2.18017 c 0.0794,-0.39423 0.18257,-0.52916 0.60854,-0.52916 h 0.0344 l 0.0423,-0.20638 h -1.49489 l -0.0423,0.20638 h 0.0529 c 0.29633,0 0.41804,0.0794 0.41804,0.26458 a 1.30175,1.30175 0 0 1 -0.0265,0.19579 l -0.42863,2.18017 c -0.10583,0.51329 -0.26458,1.016 -1.10596,1.016 a 0.6746875,0.6746875 0 0 1 -0.74612,-0.65088 2.7701875,2.7701875 0 0 1 0.0767,-0.56091 l 0.38364,-1.90765 c 0.0767,-0.40217 0.17727,-0.52917 0.60854,-0.52917 h 0.0344 l 0.0423,-0.20637 h -1.70127 l -0.0529,0.20637 h 0.0556 c 0.30692,0 0.42598,0.0767 0.42598,0.26459 a 1.381125,1.381125 0 0 1 -0.0291,0.19843 l -0.38894,1.95528 a 2.9315833,2.9315833 0 0 0 -0.0741,0.60854 0.8255,0.8255 0 0 0 0.32279,0.68262 h -0.87577 c -0.3175,0 -0.39423,-0.10848 -0.55562,-0.52916 l -0.48948,-1.3044 c 0.61119,-0.0503 1.24619,-0.44185 1.24619,-1.2065 0,-0.76465 -0.61648,-0.87842 -1.22767,-0.87842 h -1.63248 l -0.0397,0.20638 h 0.0503 c 0.30692,0 0.42598,0.0767 0.42598,0.26458 a 1.8044583,1.8044583 0 0 1 -0.0265,0.19844 l -0.54768,2.70669 c -0.0767,0.40216 -0.17727,0.52916 -0.61384,0.52916 h -0.0397 l -0.0397,0.20638 h 0.0503 c 0.29898,0 0.41804,0.0794 0.41804,0.26458 a 1.3229167,1.3229167 0 0 1 -0.0265,0.19844 l -0.54239,2.72785 c -0.0794,0.40217 -0.17727,0.52917 -0.60854,0.52917 h -0.0344 l -0.0423,0.20637 h 2.89718 l 0.19315,-0.9525 h -0.21167 v 0.0291 a 0.76464583,0.76464583 0 0 1 -0.84137,0.60325 h -0.40746 c -0.32808,0 -0.35454,-0.0661 -0.35454,-0.15875 a 1.4816667,1.4816667 0 0 1 0.0265,-0.1905 l 0.54504,-2.71197 c 0.0767,-0.40217 0.17727,-0.52917 0.60854,-0.52917 h 0.045 l 0.0423,-0.20638 h -0.0529 c -0.30162,0 -0.42333,-0.0794 -0.42333,-0.26458 a 1.3467292,1.3467292 0 0 1 0.0397,-0.24606 l 0.26458,-1.32291 h 0.21431 l 0.72232,2.04787 h 0.64558 c 0.30427,0 0.42333,0.0767 0.42333,0.26458 a 1.2594167,1.2594167 0 0 1 -0.0265,0.1958 l -0.39158,1.95791 a 2.8918958,2.8918958 0 0 0 -0.0741,0.60854 c 0,0.6985 0.64294,0.94721 1.24619,0.94721 1.34673,0 1.50283,-0.70114 1.62719,-1.26735 l 0.43656,-2.18017 c 0.0767,-0.39423 0.17991,-0.52917 0.60854,-0.52917 h 0.0265 l 0.0423,-0.20637 h -0.70644 a 1.4657917,1.4657917 0 0 0 0.52917,-1.00277"
         id="path12"
         style="stroke-width:0.26458332" />
      <path
         d="m 168.06428,200.19666 c 0.0741,-0.37835 0.0979,-0.42068 0.50006,-0.42068 0.40217,0 0.76465,0.0741 0.76465,0.61912 0,0.76994 -0.56886,0.93133 -1.05834,0.93133 h -0.44714 z m 0.62706,-0.74083 h -1.64571 l -0.0397,0.20637 h 0.0582 c 0.29898,0 0.42069,0.0794 0.42069,0.26459 a 1.381125,1.381125 0 0 1 -0.0291,0.19844 l -0.52917,2.70933 c -0.0767,0.40217 -0.17727,0.52917 -0.60854,0.52917 h -0.0476 l -0.0397,0.20637 h 0.71702 c 0.29633,0 0.41804,0.0794 0.41804,0.26458 a 1.6880417,1.6880417 0 0 1 -0.0265,0.1958 l -0.53975,2.73843 c -0.0767,0.40217 -0.17463,0.52917 -0.6059,0.52917 h -0.037 l -0.0397,0.20637 h 1.70127 l 0.0423,-0.20637 h -0.0529 c -0.29633,0 -0.41804,-0.0794 -0.41804,-0.26458 a 1.1535833,1.1535833 0 0 1 0.0265,-0.19315 l 0.52917,-2.71462 c 0.0794,-0.40217 0.17727,-0.52917 0.60854,-0.52917 h 0.0344 l 0.0423,-0.20638 H 167.969 c -0.33866,0 -0.4736,-0.0794 -0.4736,-0.26458 a 1.524,1.524 0 0 1 0.0238,-0.19315 l 0.26458,-1.2647 h 0.55827 c 1.10067,0 1.68275,-0.4445 1.68275,-1.28588 0,-0.79375 -0.66939,-0.90487 -1.32291,-0.90487"
         id="path14"
         style="stroke-width:0.26458332" />
      <path
         d="m 172.84001,200.57766 a 5.9769375,5.9769375 0 0 1 -0.24077,1.67746 c -0.23019,0.70908 -0.58738,1.05833 -1.05834,1.05833 -0.52916,0 -0.70379,-0.46566 -0.70379,-0.86254 0,-0.94985 0.26458,-2.74637 1.32292,-2.74637 0.60325,0 0.69056,0.54239 0.69056,0.86254 m 0.68792,0.19579 c 0,-0.91546 -0.45509,-1.37848 -1.35467,-1.37848 a 1.7409583,1.7409583 0 0 0 -1.6801,1.09273 4.4000208,4.4000208 0 0 0 -0.34132,1.78329 c 0,0.93134 0.43657,1.38642 1.34144,1.38642 0.75936,0 2.03465,-0.37571 2.03465,-2.87338"
         id="path16"
         style="stroke-width:0.26458332" />
      <path
         d="m 164.83636,200.19666 c 0.0741,-0.37835 0.0952,-0.42068 0.49742,-0.42068 0.40216,0 0.76729,0.0741 0.76729,0.61912 0,0.76994 -0.56885,0.93133 -1.05833,0.93133 h -0.43392 l 0.22754,-1.12712 z m -0.10319,3.12209 a 2.8839583,2.8839583 0 0 0 -0.30162,0.0185 0.22225,0.22225 0 0 1 -0.16669,-0.23284 1.5875,1.5875 0 0 1 0.0265,-0.19314 l 0.26458,-1.26471 h 0.56092 c 1.10067,0 1.68275,-0.4445 1.68275,-1.28588 0,-0.79375 -0.66939,-0.90487 -1.32292,-0.90487 h -1.65893 l -0.0397,0.20637 h 0.0503 c 0.29898,0 0.42069,0.0794 0.42069,0.26459 a 1.3520208,1.3520208 0 0 1 -0.0291,0.19579 l -0.52917,2.71198 c -0.0767,0.40217 -0.17728,0.52917 -0.60855,0.52917 h -0.0344 l -0.0423,0.20637 h 0.69586 c -0.39423,0.23813 -1.02394,0.84667 -1.02394,2.27277 0,1.11919 0.56092,1.71186 1.62719,1.71186 a 3.0559375,3.0559375 0 0 0 0.96837,-0.15082 h 0.045 l 0.0661,-0.35718 -0.09,0.0291 a 2.2277917,2.2277917 0 0 1 -0.75935,0.1561 c -1.03188,0 -1.18534,-0.79375 -1.18534,-1.25942 0,-0.38364 0.0661,-2.30716 1.3679,-2.30716 a 0.90752083,0.90752083 0 0 1 0.96573,0.82814 v 0.037 h 0.20108 l 0.16404,-0.98954 h -0.0344 a 4.4635208,4.4635208 0 0 0 -1.28323,-0.22225"
         id="path18"
         style="stroke-width:0.26458332" />
      <path
         d="m 151.16799,210.89112 c -1.47109,-0.64294 -2.49238,-1.63512 -2.95275,-2.86014 -1.53988,-4.10369 3.29141,-9.91659 10.77383,-12.96459 2.91042,-1.18798 5.89756,-1.81769 8.60954,-1.81769 a 11.948583,11.948583 0 0 1 4.77838,0.87048 c 1.47108,0.64559 2.49237,1.63513 2.95275,2.8628 1.53987,4.10368 -3.29142,9.91658 -10.77384,12.96458 -4.97152,2.02142 -10.10179,2.38125 -13.38791,0.94456 m 24.54804,-14.04937 c -0.50006,-1.32292 -1.5875,-2.40242 -3.175,-3.09298 -3.38667,-1.48167 -8.63865,-1.12184 -13.71071,0.94191 -7.67292,3.12473 -12.62063,9.17575 -11.00402,13.49375 0.50006,1.32292 1.5875,2.40242 3.175,3.09298 1.37054,0.59267 3.03477,0.889 4.95035,0.889 a 23.659042,23.659042 0 0 0 8.76565,-1.85208 c 7.67292,-3.12738 12.62062,-9.17575 11.00402,-13.49375"
         id="path20"
         style="stroke-width:0.26458332" />
    </g>
  </g>
</svg>
